<svg width="48" height="48" viewBox="0 0 48 48" fill="none" xmlns="http://www.w3.org/2000/svg">
  <circle cx="24" cy="24" r="24" fill="#1db954"/>
  <path d="M24 8C15.16 8 8 15.16 8 24s7.16 16 16 16 16-7.16 16-16S32.84 8 24 8zm7.36 23.12c-.32.48-.88.64-1.36.32-3.76-2.32-8.48-2.8-14.08-1.52-.56.16-1.04-.24-1.2-.72-.16-.56.24-1.04.72-1.2 6.08-1.36 11.36-.8 15.52 1.76.56.24.64.88.4 1.36zm1.92-4.4c-.4.56-1.12.8-1.68.4-4.32-2.64-10.88-3.44-15.92-1.84-.64.16-1.36-.16-1.52-.8-.16-.64.16-1.36.8-1.52 5.68-1.8 12.88-.92 17.92 2.08.48.24.72 1.04.4 1.68zm.16-4.48C30.32 19.2 21.76 18.88 16.2 20.4c-.8.24-1.6-.24-1.84-.96-.24-.8.24-1.6.96-1.84 6.32-1.84 15.84-1.44 22.08 2.32.72.4.96 1.36.56 2.08-.4.56-1.36.8-2.08.4z" fill="white"/>
</svg>